<?xml version="1.0" encoding="utf-8"?>
<!-- Generator: Adobe Illustrator 24.3.0, SVG Export Plug-In . SVG Version: 6.00 Build 0)  -->
<svg version="1.1" id="CN_x5F_Logo_x5F_Horiz-Blue_x5F_Black-CMYK-LG-020112"
	 xmlns="http://www.w3.org/2000/svg" xmlns:xlink="http://www.w3.org/1999/xlink" x="0px" y="0px" viewBox="0 0 792 230.4"
	 style="enable-background:new 0 0 792 230.4;" xml:space="preserve">
<style type="text/css">
	.st0{fill:#231F20;}
	.st1{fill:#003D79;}
	.st2{fill:#FFFFFF;}
</style>
<g id="Clear_Space_Horizontal">
</g>
<g id="TM__x28_Avenir_LT_Std_14.96_pt_x29_">
	<g>
		<path class="st0" d="M707.3,114.1h-1.1v-9.6h-3.5v-1h8.2v1h-3.5V114.1z"/>
		<path class="st0" d="M717.7,112.2l3.6-8.6h1.6v10.6h-1.1V105h0l-3.8,9.2h-0.6l-3.8-9.2h0v9.2h-1.1v-10.6h1.6L717.7,112.2z"/>
	</g>
</g>
<g id="CN_Name_Horizontal">
	<g>
		<path class="st0" d="M209.4,123.6v-0.1c0-10.4,7.8-19,18.9-19c6.8,0,10.9,2.4,14.4,5.7l-4.1,4.8c-2.9-2.7-6.1-4.6-10.3-4.6
			c-7,0-12.1,5.8-12.1,13v0.1c0,7.2,5.1,13,12.1,13c4.5,0,7.4-1.8,10.5-4.7l4.1,4.2c-3.8,4-8,6.5-14.9,6.5
			C217.4,142.5,209.4,134.1,209.4,123.6z"/>
		<path class="st0" d="M245.9,133.9v-0.1c0-6,4.7-8.9,11.4-8.9c3.1,0,5.3,0.5,7.5,1.2v-0.7c0-3.9-2.4-6-6.9-6
			c-3.1,0-5.4,0.7-7.9,1.7l-1.7-5c3-1.4,6-2.3,10.4-2.3c4.1,0,7.2,1.1,9.2,3.1c2,2,3,4.9,3,8.6v16.4h-6.2v-3.5c-1.9,2.3-4.8,4-9,4
			C250.5,142.4,245.9,139.4,245.9,133.9z M264.9,131.9V130c-1.6-0.6-3.8-1.1-6.3-1.1c-4.1,0-6.5,1.7-6.5,4.6v0.1
			c0,2.7,2.4,4.2,5.4,4.2C261.7,137.8,264.9,135.4,264.9,131.9z"/>
		<path class="st0" d="M277.1,114.1h6.3v4.2c1.8-2.5,4.2-4.8,8.4-4.8c4,0,6.8,1.9,8.3,4.9c2.2-2.9,5.1-4.9,9.3-4.9
			c6,0,9.7,3.8,9.7,10.6v17.7h-6.3v-15.7c0-4.4-2-6.8-5.6-6.8c-3.5,0-5.9,2.4-5.9,6.9v15.6H295V126c0-4.3-2.1-6.7-5.6-6.7
			c-3.5,0-5.9,2.6-5.9,6.9v15.6h-6.3V114.1z"/>
		<path class="st0" d="M332,137.5v4.3h-6.3v-38.3h6.3v15.2c2-2.9,4.9-5.2,9.4-5.2c6.5,0,12.9,5.1,12.9,14.4v0.1
			c0,9.2-6.3,14.4-12.9,14.4C336.8,142.4,333.9,140.1,332,137.5z M347.8,128v-0.1c0-5.4-3.6-8.9-7.9-8.9c-4.3,0-8.1,3.6-8.1,8.9v0.1
			c0,5.3,3.8,8.9,8.1,8.9C344.3,136.9,347.8,133.5,347.8,128z"/>
		<path class="st0" d="M359.6,103.9h6.8v6h-6.8V103.9z M359.8,114.1h6.4v27.7h-6.4V114.1z"/>
		<path class="st0" d="M372.8,131.8v-17.6h6.3v15.7c0,4.3,2.2,6.7,5.9,6.7c3.7,0,6.2-2.5,6.2-6.8v-15.6h6.4v27.7h-6.4v-4.3
			c-1.8,2.6-4.4,4.9-8.7,4.9C376.4,142.4,372.8,138.2,372.8,131.8z"/>
		<path class="st0" d="M404.3,114.1h6.3v4.2c1.8-2.5,4.2-4.8,8.4-4.8c4,0,6.8,1.9,8.3,4.9c2.2-2.9,5.1-4.9,9.3-4.9
			c6,0,9.7,3.8,9.7,10.6v17.7h-6.3v-15.7c0-4.4-2-6.8-5.6-6.8c-3.5,0-5.9,2.4-5.9,6.9v15.6h-6.3V126c0-4.3-2.1-6.7-5.6-6.7
			c-3.5,0-5.9,2.6-5.9,6.9v15.6h-6.3V114.1z"/>
		<path class="st0" d="M467.9,105.1h6l19.7,25.4v-25.4h6.4v36.7h-5.4l-20.3-26.1v26.1h-6.3V105.1z"/>
		<path class="st0" d="M505.7,128.1V128c0-7.9,5.6-14.4,13.5-14.4c8.8,0,13.3,6.9,13.3,14.9c0,0.6-0.1,1.2-0.1,1.8h-20.4
			c0.7,4.5,3.9,7,8,7c3.1,0,5.3-1.2,7.5-3.3l3.7,3.3c-2.6,3.1-6.2,5.2-11.3,5.2C511.9,142.5,505.7,136.7,505.7,128.1z M526.2,126
			c-0.4-4.1-2.8-7.3-7-7.3c-3.9,0-6.6,3-7.2,7.3H526.2z"/>
		<path class="st0" d="M538.9,134.2v-14.6h-3.5v-5.5h3.5v-7.6h6.4v7.6h7.4v5.5h-7.4v13.6c0,2.5,1.3,3.5,3.4,3.5
			c1.4,0,2.7-0.3,3.9-0.9v5.2c-1.6,0.9-3.3,1.4-5.7,1.4C542.2,142.3,538.9,140.3,538.9,134.2z"/>
		<path class="st0" d="M555.5,114.1h6.5l5.6,19l6.1-19.1h5.5l6.1,19.1l5.7-19h6.4l-9.1,27.9h-5.7l-6.2-18.9l-6.2,18.9h-5.7
			L555.5,114.1z"/>
		<path class="st0" d="M598.7,128.1V128c0-7.9,6.3-14.5,14.8-14.5s14.7,6.5,14.7,14.4v0.1c0,7.9-6.3,14.4-14.9,14.4
			C605,142.5,598.7,136,598.7,128.1z M621.9,128.1V128c0-4.9-3.5-8.9-8.5-8.9c-5.1,0-8.3,4-8.3,8.8v0.1c0,4.8,3.5,8.9,8.4,8.9
			C618.7,136.9,621.9,132.9,621.9,128.1z"/>
		<path class="st0" d="M633.4,114.1h6.4v6.2c1.7-4.1,4.9-7,9.8-6.8v6.7h-0.4c-5.6,0-9.4,3.6-9.4,11v10.5h-6.4V114.1z"/>
		<path class="st0" d="M653.7,103.5h6.3v22.9l11.5-12.3h7.7l-11,11.3l11.4,16.4h-7.5l-8.2-12l-3.9,4.1v7.9h-6.3V103.5z"/>
		<path class="st0" d="M680.6,138.2l2.8-4.3c3,2.3,6.2,3.4,9.1,3.4c2.7,0,4.3-1.2,4.3-3v-0.1c0-2.2-2.9-2.9-6.2-3.9
			c-4.1-1.2-8.7-2.8-8.7-8.1v-0.1c0-5.2,4.4-8.4,9.9-8.4c3.5,0,7.2,1.2,10.2,3.1l-2.5,4.5c-2.7-1.6-5.5-2.6-7.8-2.6
			c-2.5,0-3.9,1.2-3.9,2.7v0.1c0,2,3,2.9,6.2,3.9c4,1.3,8.6,3.1,8.6,8.1v0.1c0,5.8-4.5,8.7-10.3,8.7
			C688.4,142.4,684.1,141,680.6,138.2z"/>
	</g>
</g>
<g id="CN_Icon_Horizontal">
	<path class="st1" d="M152.4,92.6c-6.4,3.6-11.1,9.5-13,16.5c-2,7.1-1.1,14.5,2.5,20.9c4.9,8.7,14.1,14.1,24.1,14.1
		c3.3,0,6.5-0.6,9.5-1.7c5.4-7.7,8.6-17.1,8.6-27.2c0-8.5-2.2-16.5-6.2-23.3c-3.7-1.8-7.8-2.8-12-2.8
		C161.1,89.1,156.5,90.3,152.4,92.6z"/>
	<path class="st1" d="M115.1,123.6c2.5,4.5,5.7,8.5,9.5,11.9c-1.7-2-3.2-4.2-4.5-6.6c-11.9-21.3-5-48.1,15.4-61
		c-5.8,0.1-11.4,1.3-16.5,3.4C107.7,86,105.5,106.5,115.1,123.6z"/>
	<path class="st1" d="M109.9,126.5c-8.8-15.7-8.8-34.1-1.5-49.2c-11.5,8.6-19,22.4-19,37.9c0,26.1,21.2,47.3,47.3,47.3
		c10.5,0,20.2-3.4,28-9.2c-2.6,0.4-5.3,0.6-8,0.6C137.3,153.9,119.4,143.4,109.9,126.5z"/>
	<path class="st1" d="M146.8,82.7c-7.8,4.3-13.4,11.5-15.8,20c-2.4,8.6-1.4,17.6,3,25.3c0.4,0.7,0.8,1.3,1.2,2
		c-3.1-7.1-3.7-15-1.6-22.6c2.4-8.6,8.1-15.8,15.9-20.1c5-2.8,10.6-4.3,16.3-4.3c2.1,0,4.2,0.2,6.2,0.6c-1.6-1.8-3.3-3.5-5.2-5
		c-1.2-0.1-2.5-0.2-3.8-0.2C157.4,78.5,151.7,79.9,146.8,82.7z"/>
	<path class="st1" d="M125.3,126c1.1,2,2.4,3.9,3.8,5.6c-0.1-0.2-0.3-0.4-0.4-0.6c-5.1-9.2-6.4-19.8-3.5-29.9
		c2.9-10.1,9.5-18.5,18.6-23.6c4.3-2.4,9.1-4,14-4.7c-3.4-1.7-7.1-3-11-3.9c-2.1,0.8-4.2,1.7-6.2,2.8
		C121.5,82.5,114.6,106.8,125.3,126z"/>
	<path class="st2" d="M175.4,142.4c-3.1,1.1-6.3,1.7-9.5,1.7c-10,0-19.2-5.4-24.1-14.1c-3.6-6.4-4.5-13.8-2.5-20.9
		c2-7.1,6.6-12.9,13-16.5c4.1-2.3,8.7-3.5,13.4-3.5c4.2,0,8.3,1,12,2.8c-1.7-2.9-3.6-5.7-5.9-8.2c-2-0.4-4.1-0.6-6.2-0.6
		c-5.7,0-11.3,1.5-16.3,4.3c-7.8,4.4-13.4,11.5-15.9,20.1c-2.1,7.6-1.6,15.5,1.6,22.6c-0.4-0.6-0.8-1.3-1.2-2
		c-4.3-7.8-5.4-16.8-3-25.3c2.4-8.6,8-15.7,15.8-20c5-2.8,10.6-4.3,16.2-4.3c1.3,0,2.5,0.1,3.8,0.2c-2.7-2.3-5.8-4.2-9-5.8
		c-4.9,0.7-9.6,2.2-14,4.7c-9.2,5.1-15.8,13.5-18.6,23.6c-2.9,10.1-1.6,20.7,3.5,29.9c0.1,0.2,0.3,0.4,0.4,0.6
		c-1.4-1.7-2.7-3.6-3.8-5.6c-10.7-19.2-3.9-43.5,15.3-54.3c2-1.1,4.1-2,6.2-2.8c-3.3-0.7-6.7-1.1-10.2-1.1c-0.4,0-0.8,0-1.2,0
		c-20.3,12.9-27.3,39.7-15.4,61c1.3,2.3,2.8,4.5,4.5,6.6c-3.7-3.4-6.9-7.4-9.5-11.9c-9.6-17.1-7.4-37.6,3.8-52.3
		c-3.8,1.5-7.4,3.5-10.6,6c-7.2,15.2-7.3,33.5,1.5,49.2c9.5,16.9,27.4,27.4,46.8,27.4c2.7,0,5.4-0.2,8-0.6
		C168.8,150.3,172.4,146.6,175.4,142.4z"/>
</g>
</svg>
