<?xml version="1.0" encoding="utf-8"?>
<!-- Generator: Adobe Illustrator 19.2.1, SVG Export Plug-In . SVG Version: 6.00 Build 0)  -->
<svg version="1.1" id="layer" xmlns="http://www.w3.org/2000/svg" xmlns:xlink="http://www.w3.org/1999/xlink" x="0px" y="0px"
	 viewBox="0 0 652 652" style="enable-background:new 0 0 652 652;" xml:space="preserve">
<style type="text/css">
	.st0{fill:#060E9F;}
	.st1{fill:none;stroke:#FFFFFE;stroke-width:4.2807;}
	.st2{fill:#FFFFFF;}
	.st3{fill-rule:evenodd;clip-rule:evenodd;fill:#FFFFFF;}
	.st4{fill-rule:evenodd;clip-rule:evenodd;fill:#231C1C;}
</style>
<path class="st0" d="M20.7,321.7c0-68.3,134.3-123.6,300-123.6c165.7,0,300,55.3,300,123.6s-134.3,123.6-300,123.6
	C155,445.3,20.7,390,20.7,321.7"/>
<path class="st1" d="M20.7,321.7c0-68.3,134.3-123.6,300-123.6c165.7,0,300,55.3,300,123.6s-134.3,123.6-300,123.6
	C155,445.3,20.7,390,20.7,321.7z"/>
<path class="st2" d="M32.6,321.7c0-60.6,129-109.6,288.1-109.6c159.1,0,288.1,49.1,288.1,109.7s-129,109.6-288.1,109.6
	C161.6,431.3,32.6,382.2,32.6,321.7"/>
<path class="st0" d="M35.7,321.7c0-57.4,127.6-103.9,285-103.9c157.4,0,285,46.5,285,103.9s-127.6,103.9-285,103.9
	C163.3,425.6,35.7,379,35.7,321.7"/>
<path class="st3" d="M247.3,291c-3,0-3.2,0.7-4.9,4.3c-0.2,0.4-3.7-3.7-10.2-3.7c-9.3,0-20.7,7.6-27.6,15.3
	c-7.5,8.6-13,19.9-13.5,32.4c-0.3,8,2.8,13.4,10.1,15.3c6.5,1.7,16-2.4,24.5-13.6c-0.3,5.1-0.7,6.8,0,8.9c0.8,2.4,2.8,4.9,6.1,5.1
	c6.8,0.3,13.3-5.2,18-10.6c1.7-1.9,4.9-5.7,5-8.7c0-0.8-0.9-1.6-1.7-1.6c-1.8,0-7.4,10.6-10.9,10.6c-1.1,0-1.4-1.7-1.4-2.6
	c0.1-2.6,2.1-8,2.7-10.3l3.1-9.9c1.2-4.7,9.4-25.8,9.5-28.3c0.1-2.2-3.8-2.6-4.8-2.6H247.3z M210.4,344c-10.6-4.1,0-23.5,3.7-30
	c4-6.7,12.8-17.3,20.1-17c2.5,0.1,5.4,2.4,5.1,5.4C238.3,314.4,220.9,348.1,210.4,344"/>
<path class="st4" d="M548.6,424.8h2.1l3.5,5.8h2.5l-3.8-6c2-0.2,3.6-1.2,3.6-3.7c0-2.8-1.7-3.9-5-3.9h-5.2v13.6h2.2V424.8z
	 M548.6,422.9v-4h2.7c1.3,0,3,0.2,3,1.9c0,2-1.5,2.1-3.2,2.1H548.6z M563.1,423.6c0-7.4-5.6-12.3-12.1-12.3
	c-6.5,0-12.1,4.9-12.1,12.3c0,7,5,12.3,12.1,12.3C557.5,435.9,563.1,431,563.1,423.6 M560.5,423.6c0,6-4.2,10.2-9.4,10.2
	c-5.9,0-9.5-4.6-9.5-10.2c0-6,4.1-10.2,9.5-10.2C556.3,413.4,560.5,417.6,560.5,423.6"/>
<path class="st3" d="M186.9,279c2.7,11.2,17,5.7,18.2-1c1.9-9.9-7.6-14.1-23.7-13.7c-27.9,0.7-64,21.8-68.1,58.2
	c-2.2,19.5,16.3,33.4,31.4,32.7c12.6-0.6,14.6-0.7,22.4-3.7c4.3-1.7,14.9-6.8,14.9-12.1c0-1.2-1.2-2.1-2.3-2.1
	c-2.3,0-6.1,4.5-7.9,5.4c-7.7,3.9-16.6,6.9-25.2,5.1c-15.8-3.2-19-21.3-11.9-39.2c5.1-12.9,19.1-40.5,52.4-37.5
	C190.9,271.5,186.2,276.1,186.9,279"/>
<path class="st3" d="M308,303.6c1.3,0,1.4,1.4,1.3,2.6c0,4.7,1.9,4.1,5.3,4.4c5,0.5,8.4-3.6,8.8-9.7c0.4-5.3-2.3-9.7-6.4-9.7
	c-11.4,0-19.2,18.6-25.2,29.6l1.6-6.3c1.3-5,2.8-10.8,3.2-16c0.4-5-1.7-7.4-5.2-7.4c-5.9,0-12,5.4-16.3,10.8
	c-1.4,1.7-5.7,6.8-5.9,9.4c-0.1,1,0.5,1.7,1.1,1.7c2.3,0,7.7-11.1,11.4-11.1c0.9,0,1.2,1.2,1.1,2.2c-0.2,2.8-2.3,9.6-3.1,12.2
	l-9.8,30.1l-1,3.2l-0.8,3.3c-0.2,2.1,2.4,1.7,3.3,1.7h2.8c1.7,0,5.9,0.4,7.4-1.1c0.9-0.8,1.6-3.1,2.1-4.3
	C290.4,326.3,304.5,303.6,308,303.6"/>
<path class="st3" d="M366.2,303.9c1.3,0,1.4,1.4,1.3,2.6c0,4.7,1.9,4.1,5.3,4.4c5,0.5,8.4-3.6,8.8-9.7c0.4-5.3-2.3-9.7-6.4-9.7
	c-11.4,0-19.2,18.6-25.2,29.6l1.6-6.3c1.3-5,2.8-10.8,3.2-16c0.4-5-1.6-7.4-5.2-7.4c-5.9,0-12,5.4-16.3,10.8
	c-1.4,1.7-5.7,6.8-5.9,9.4c-0.1,1,0.5,1.7,1.1,1.7c2.3,0,7.7-11,11.4-11c0.9,0,1.2,1.2,1.1,2.2c-0.2,2.8-2.3,9.6-3.1,12.2l-9.8,30.1
	l-1,3.2l-0.8,3.3c-0.2,2.1,2.4,1.7,3.3,1.7h2.8c1.7,0,6,0.4,7.4-1.1c0.9-0.8,1.6-3,2.1-4.3C348.6,326.6,362.7,303.9,366.2,303.9"/>
<path class="st3" d="M399.5,325.5c1.6-4.5,5.1-16.1,6.4-20.3c3.7-11.9,2.7-11.9-3.8-11.7c-6.4,0.2-8.8,5.3-8.8,6.3
	c-0.2,2.5-15.8,43.3-16.3,50.4c-0.4,5.2,2.2,7.5,6.2,7.5c7,0,12.1-3.4,17.9-8.2c3.7-3.1,10.6-9.9,5.2-11.6
	c-1.4-0.5-9.9,12.4-13.2,10.1C390.8,346.4,399.5,325.5,399.5,325.5 M404.6,287c4.7,0,9.1-4.1,9.5-9.6c0.4-4.9-2.4-8.2-6.7-8.2
	c-4.6,0-9,4.3-9.4,9.6C397.7,283.8,400.3,287,404.6,287"/>
<path class="st3" d="M520.8,303.9c1.3,0,1.4,1.4,1.3,2.6c0,4.7,1.9,4.1,5.3,4.4c5,0.5,8.4-3.6,8.8-9.7c0.4-5.3-2.3-9.7-6.4-9.7
	c-11.4,0-19.2,18.6-25.2,29.6l1.6-6.3c1.3-5,2.8-10.8,3.2-16c0.4-5-1.6-7.4-5.2-7.4c-5.9,0-12,5.4-16.3,10.8
	c-1.4,1.7-5.7,6.8-5.9,9.4c-0.1,1,0.5,1.7,1.1,1.7c2.3,0,7.7-11.1,11.4-11.1c0.9,0,1.2,1.2,1.1,2.2c-0.2,2.8-2.3,9.6-3.1,12.2
	l-9.8,30.1l-1,3.2l-0.8,3.3c-0.2,2.1,2.4,1.7,3.3,1.7h2.8c1.7,0,6,0.4,7.4-1.1c0.9-0.8,1.6-3,2.1-4.3
	C503.2,326.6,517.3,303.9,520.8,303.9"/>
<path class="st3" d="M432.7,330c10.9,0.3,41.9-3,41.9-23.6c0-10.8-8.8-14.5-16.7-14.9c-21.4-1.1-41.5,19.1-41.5,43
	c0,15.1,10.3,23,22.3,23c6.7,0,13.7-2.8,19.1-7.4c1.9-1.7,9.7-6.8,9.7-9.6c0-0.8-1.1-2.7-1.8-2.7c-2.2,0-9.2,9.9-20,11.2
	c-8.5,1-14.3-3.2-14.3-11.2L432.7,330z M434.1,324.6c2.3-8.8,12.8-28.4,22.2-27.3c2.7,0.3,5.1,4.9,4.7,7.9
	c-0.7,5.7-3.7,11.9-9.5,15.3C446.5,323.4,439.5,325,434.1,324.6"/>
</svg>
