<?xml version="1.0" encoding="UTF-8" standalone="no"?>
<svg
   xmlns:dc="http://purl.org/dc/elements/1.1/"
   xmlns:cc="http://creativecommons.org/ns#"
   xmlns:rdf="http://www.w3.org/1999/02/22-rdf-syntax-ns#"
   xmlns:svg="http://www.w3.org/2000/svg"
   xmlns="http://www.w3.org/2000/svg"
   xmlns:sodipodi="http://sodipodi.sourceforge.net/DTD/sodipodi-0.dtd"
   xmlns:inkscape="http://www.inkscape.org/namespaces/inkscape"
   version="1.1"
   id="svg2"
   xml:space="preserve"
   width="306.664"
   height="125.59893"
   viewBox="0 0 306.664 125.59893"
   sodipodi:docname="ditec logo 2019_CMYK.ai"><metadata
     id="metadata8"><rdf:RDF><cc:Work
         rdf:about=""><dc:format>image/svg+xml</dc:format><dc:type
           rdf:resource="http://purl.org/dc/dcmitype/StillImage" /></cc:Work></rdf:RDF></metadata><defs
     id="defs6"><clipPath
       clipPathUnits="userSpaceOnUse"
       id="clipPath18"><path
         d="M 0,94.199 H 229.998 V 0 H 0 Z"
         id="path16" /></clipPath></defs><sodipodi:namedview
     pagecolor="#ffffff"
     bordercolor="#666666"
     borderopacity="1"
     objecttolerance="10"
     gridtolerance="10"
     guidetolerance="10"
     inkscape:pageopacity="0"
     inkscape:pageshadow="2"
     inkscape:window-width="640"
     inkscape:window-height="480"
     id="namedview4" /><g
     id="g10"
     inkscape:groupmode="layer"
     inkscape:label="ditec logo 2019_CMYK"
     transform="matrix(1.3333333,0,0,-1.3333333,0,125.59893)"><g
       id="g12"><g
         id="g14"
         clip-path="url(#clipPath18)"><g
           id="g20"
           transform="translate(14.8281,15.1109)"><path
             d="m 0,0 h 9.004 c 5.174,0.103 11.591,0.206 16.352,4.243 3.312,3.002 6.314,9.004 6.314,18.836 0,3.311 -0.207,11.073 -4.967,16.972 -5.177,6.417 -11.488,6.728 -17.389,7.038 H 0 Z m 10.867,59.509 c 8.279,-0.207 18.112,-0.518 26.806,-9.211 9.21,-9.315 9.521,-21.837 9.521,-27.115 0,-5.382 -0.621,-10.764 -2.381,-16.042 -6.933,-20.906 -24.218,-20.7 -35.705,-20.7 H -14.8 c -0.041,64.183 -0.025,64.742 -0.025,66.548 0,4.147 2.53,6.509 6.582,6.509 5.53,-0.011 19.11,0.011 19.11,0.011"
             style="fill:#1a171b;fill-opacity:1;fill-rule:nonzero;stroke:none"
             id="path22" /></g><path
           d="M 83.448,1.553 H 69.994 v 51.748 h 13.454 z"
           style="fill:#1a171b;fill-opacity:1;fill-rule:nonzero;stroke:none"
           id="path24" /><g
           id="g26"
           transform="translate(108.8027,25.6675)"><path
             d="m 0,0 c 0.104,-6.21 0.104,-6.832 0.415,-8.384 0.62,-2.587 1.759,-4.864 7.244,-4.864 1.035,0 2.07,0.104 3.415,0.206 v -11.797 c -2.485,-0.206 -5.278,-0.518 -9.004,-0.518 -5.589,0 -8.072,0.62 -9.936,1.553 -4.967,2.691 -5.071,7.555 -5.175,10.865 v 31.464 h -7.141 v 9.107 h 7.141 V 40.651 H 0 V 27.632 H 11.074 V 18.525 H 0 Z"
             style="fill:#1a171b;fill-opacity:1;fill-rule:nonzero;stroke:none"
             id="path28" /></g><g
           id="g30"
           transform="translate(159.7226,34.4644)"><path
             d="m 0,0 c -0.208,2.691 -1.035,4.863 -2.896,6.725 -1.657,1.658 -4.349,2.9 -7.557,2.9 -2.587,0 -5.071,-0.725 -7.141,-2.379 C -20.803,4.657 -21.423,1.759 -21.837,0 Z m 14.904,-22.459 c -1.347,-1.759 -2.898,-4.035 -6.105,-6.418 -5.279,-3.932 -11.8,-5.484 -17.493,-5.484 -15.835,0 -27.323,11.59 -27.323,27.84 0,16.249 10.972,26.908 25.873,26.908 5.486,0 12.835,-1.241 19.043,-8.694 C 14.8,4.449 15.42,-3.831 15.628,-9.522 h -37.465 c 0.104,-1.449 0.311,-3.622 1.449,-5.693 1.863,-3.725 6.209,-6.934 12.42,-6.934 6.83,0 10.038,3.934 11.796,6.107 z"
             style="fill:#1a171b;fill-opacity:1;fill-rule:nonzero;stroke:none"
             id="path32" /></g><g
           id="g34"
           transform="translate(229.998,15.5244)"><path
             d="m 0,0 c -1.656,-3.313 -7.763,-15.524 -23.907,-15.524 -14.489,0 -26.393,10.35 -26.393,27.323 0,17.49 12.938,27.528 26.909,27.528 6.83,0 18.215,-2.689 23.391,-15.938 l -12.318,-6.105 c -0.93,2.691 -3.518,9.52 -11.28,9.52 -7.244,0 -12.832,-6.519 -12.832,-14.902 0,-8.694 5.588,-14.49 13.143,-14.49 6.259,0 8.594,3.767 9.346,4.999 1.273,2.431 4.263,3.135 6.42,2.01 C -6.696,3.934 0,0 0,0"
             style="fill:#1a171b;fill-opacity:1;fill-rule:nonzero;stroke:none"
             id="path36" /></g><g
           id="g38"
           transform="translate(96.7861,76.916)"><path
             d="m 0,0 -26.679,-19.321 v 8.543 l 23.115,28.061 z"
             style="fill:#e53534;fill-opacity:1;fill-rule:nonzero;stroke:none"
             id="path40" /></g></g></g></g></svg>
