<?xml version="1.0" standalone="no"?>
<!DOCTYPE svg PUBLIC "-//W3C//DTD SVG 20010904//EN"
 "http://www.w3.org/TR/2001/REC-SVG-20010904/DTD/svg10.dtd">
<svg version="1.0" xmlns="http://www.w3.org/2000/svg"
 width="2783.000000pt" height="1394.000000pt" viewBox="0 0 2783.000000 1394.000000"
 preserveAspectRatio="xMidYMid meet">

<g transform="translate(0.000000,1394.000000) scale(0.100000,-0.100000)"
fill="#000000" stroke="none">
<path d="M8016 9169 c-186 -32 -341 -61 -344 -63 -5 -6 -691 -2310 -689 -2313
4 -3 678 214 684 221 4 4 648 2005 698 2169 10 35 11 47 2 46 -7 -1 -164 -27
-351 -60z"/>
<path d="M6616 9139 c-186 -32 -341 -61 -344 -63 -5 -6 -691 -2310 -689 -2313
4 -3 678 214 684 221 4 4 648 2005 698 2169 10 35 11 47 2 46 -7 -1 -164 -27
-351 -60z"/>
<path d="M9481 8939 c-73 -14 -168 -65 -220 -117 -153 -153 -186 -441 -77
-665 53 -107 122 -193 315 -387 191 -193 241 -251 277 -321 41 -82 48 -205 15
-268 -47 -87 -200 -118 -290 -58 -57 38 -85 102 -89 205 -5 97 13 90 -182 67
-69 -8 -126 -15 -127 -15 -9 0 0 -137 12 -195 51 -241 246 -395 500 -395 254
0 449 154 500 395 37 177 -2 340 -121 505 -32 44 -127 154 -212 243 -214 225
-278 301 -315 376 -27 56 -32 75 -31 141 0 101 26 153 91 182 56 24 131 21
171 -9 45 -32 74 -103 79 -196 l6 -82 151 16 c83 10 153 18 155 18 8 2 -11
173 -25 228 -44 170 -174 297 -342 332 -61 13 -177 13 -241 0z"/>
<path d="M11396 8934 c-167 -40 -297 -169 -342 -337 -11 -42 -14 -181 -14
-727 0 -721 0 -722 50 -826 13 -25 47 -72 76 -103 187 -202 551 -202 738 0
106 114 126 186 126 452 l0 197 -155 0 -155 0 0 -177 c0 -226 -15 -267 -113
-308 -68 -28 -138 -16 -191 33 -57 54 -56 36 -56 732 0 696 -1 678 56 732 53
49 123 61 191 33 94 -40 112 -85 113 -277 l0 -148 155 0 155 0 0 168 c0 232
-24 311 -126 421 -118 127 -319 181 -508 135z"/>
<path d="M15241 8939 c-73 -14 -168 -65 -220 -117 -153 -153 -186 -441 -77
-665 53 -107 122 -193 315 -387 191 -193 241 -251 277 -321 41 -82 48 -205 15
-268 -47 -87 -200 -118 -290 -58 -57 38 -85 102 -89 205 -5 97 13 90 -182 67
-69 -8 -126 -15 -127 -15 -9 0 0 -137 12 -195 51 -241 246 -395 500 -395 254
0 449 154 500 395 37 177 -2 340 -121 505 -32 44 -127 154 -212 243 -214 225
-278 301 -315 376 -27 56 -32 75 -31 141 0 101 26 153 91 182 56 24 131 21
171 -9 45 -32 74 -103 79 -196 l6 -82 151 16 c83 10 153 18 155 18 8 2 -11
173 -25 228 -44 170 -174 297 -342 332 -61 13 -177 13 -241 0z"/>
<path d="M20896 8934 c-167 -40 -297 -169 -342 -337 -11 -42 -14 -181 -14
-727 0 -721 0 -722 50 -826 13 -25 47 -72 76 -103 187 -202 551 -202 738 0
106 114 126 186 126 452 l0 197 -155 0 -155 0 0 -177 c0 -226 -15 -267 -113
-308 -68 -28 -138 -16 -191 33 -57 54 -56 36 -56 732 0 696 -1 678 56 732 53
49 123 61 191 33 94 -40 112 -85 113 -277 l0 -148 155 0 155 0 0 168 c0 232
-24 311 -126 421 -118 127 -319 181 -508 135z"/>
<path d="M10390 7870 l0 -1050 160 0 160 0 0 1050 0 1050 -160 0 -160 0 0
-1050z"/>
<path d="M12312 8043 l3 -878 23 -59 c76 -203 246 -316 469 -316 225 1 397
120 466 323 22 61 22 74 25 935 l3 872 -161 0 -160 0 0 -852 0 -853 -23 -40
c-38 -69 -138 -103 -214 -74 -40 15 -73 48 -94 94 -18 38 -19 85 -19 883 l0
842 -160 0 -161 0 3 -877z"/>
<path d="M13620 7870 l0 -1050 160 0 160 0 0 435 0 435 83 0 83 0 113 -427
c63 -236 117 -431 120 -436 4 -4 80 -6 168 -5 l160 3 -133 465 -132 465 32 25
c53 41 93 89 125 149 50 94 61 162 61 376 0 214 -11 282 -62 376 -37 70 -116
147 -186 183 -97 49 -152 56 -464 56 l-288 0 0 -1050z m561 739 c19 -7 47 -23
63 -38 50 -46 56 -74 56 -269 0 -167 -2 -182 -23 -223 -36 -70 -84 -89 -224
-89 l-113 0 0 315 0 315 104 0 c56 0 118 -5 137 -11z"/>
<path d="M16150 7870 l0 -1050 455 0 455 0 0 150 0 150 -295 0 -295 0 0 305 0
305 233 2 232 3 0 150 0 150 -232 3 -233 2 0 290 0 290 295 0 295 0 0 150 0
150 -455 0 -455 0 0 -1050z"/>
<path d="M17320 7870 l0 -1050 160 0 160 0 0 435 0 435 83 0 83 0 113 -427
c63 -236 117 -431 120 -436 4 -4 80 -6 168 -5 l160 3 -133 465 -132 465 32 25
c53 41 93 89 125 149 50 94 61 162 61 376 0 214 -11 282 -62 376 -37 70 -116
147 -186 183 -97 49 -152 56 -464 56 l-288 0 0 -1050z m561 739 c19 -7 47 -23
63 -38 50 -46 56 -74 56 -269 0 -167 -2 -182 -23 -223 -36 -70 -84 -89 -224
-89 l-113 0 0 315 0 315 104 0 c56 0 118 -5 137 -11z"/>
<path d="M18535 8898 c3 -13 79 -473 170 -1023 91 -550 168 -1012 171 -1027
l6 -28 212 0 212 0 172 1038 c95 570 172 1043 172 1050 0 9 -38 12 -157 12
l-158 0 -113 -788 c-104 -721 -129 -874 -131 -832 -1 8 -53 370 -116 804 -63
434 -115 795 -115 803 0 10 -35 13 -165 13 l-165 0 5 -22z"/>
<path d="M19890 7870 l0 -1050 160 0 160 0 0 1050 0 1050 -160 0 -160 0 0
-1050z"/>
<path d="M21820 7870 l0 -1050 455 0 455 0 0 150 0 150 -295 0 -295 0 0 305 0
305 233 2 232 3 0 150 0 150 -232 3 -233 2 0 290 0 290 295 0 295 0 0 150 0
150 -455 0 -455 0 0 -1050z"/>
<path d="M8022 7120 c-189 -59 -345 -110 -349 -113 -6 -6 -693 -2270 -690
-2274 4 -3 678 135 684 140 3 4 162 525 353 1159 190 634 350 1163 354 1176 4
12 4 22 -1 21 -4 -1 -162 -50 -351 -109z"/>
<path d="M6622 7090 c-189 -59 -345 -110 -349 -113 -6 -6 -693 -2270 -690
-2274 4 -3 678 135 684 140 3 4 162 525 353 1159 190 634 350 1163 354 1176 4
12 4 22 -1 21 -4 -1 -162 -50 -351 -109z"/>
<path d="M14990 5795 l0 -755 70 0 70 0 0 755 0 755 -70 0 -70 0 0 -755z"/>
<path d="M9422 6317 c-48 -18 -99 -63 -124 -110 -18 -34 -23 -58 -23 -127 0
-123 25 -169 182 -331 154 -160 185 -218 148 -288 -29 -57 -124 -66 -164 -15
-10 13 -22 47 -26 74 l-7 49 -51 -5 c-104 -10 -100 -8 -94 -73 12 -132 99
-218 233 -229 113 -9 204 40 250 134 23 47 26 63 22 131 -5 108 -28 149 -176
306 -68 73 -132 149 -143 169 -28 54 -25 123 6 153 61 62 145 4 145 -100 l0
-35 63 6 c94 9 90 6 85 77 -9 105 -62 182 -147 212 -51 18 -132 18 -179 2z"/>
<path d="M10385 6315 c-48 -19 -99 -66 -128 -120 -21 -39 -22 -50 -22 -400 0
-402 -2 -389 73 -467 86 -91 273 -89 359 4 47 50 63 105 63 221 l0 108 -77 -3
-78 -3 -5 -103 c-4 -89 -8 -106 -25 -118 -51 -38 -111 -26 -137 27 -16 30 -18
68 -18 334 0 266 2 304 18 334 28 56 97 66 142 21 17 -17 20 -34 20 -105 l0
-85 80 0 80 0 0 93 c-1 133 -36 204 -125 250 -52 27 -165 33 -220 12z"/>
<path d="M17770 6321 c-78 -25 -138 -80 -161 -148 -11 -29 -14 -117 -14 -378
0 -372 2 -388 58 -451 52 -60 100 -79 197 -79 75 0 91 3 132 28 52 30 89 74
107 126 15 47 15 705 0 752 -32 94 -113 150 -223 155 -39 2 -82 0 -96 -5z
m123 -153 c46 -24 46 -26 47 -374 0 -318 -1 -331 -20 -352 -45 -48 -124 -39
-152 18 -16 31 -18 69 -18 333 0 238 3 305 15 332 20 50 79 69 128 43z"/>
<path d="M20870 6321 c-78 -25 -138 -80 -161 -148 -11 -29 -14 -117 -14 -378
0 -372 2 -388 58 -451 52 -60 100 -79 197 -79 75 0 91 3 132 28 52 30 89 74
107 126 7 23 11 147 11 376 0 229 -4 353 -11 376 -32 94 -113 150 -223 155
-39 2 -82 0 -96 -5z m123 -153 c46 -24 46 -26 47 -374 0 -318 -1 -331 -20
-352 -45 -48 -124 -39 -152 18 -16 31 -18 69 -18 333 0 238 3 305 15 332 20
50 79 69 128 43z"/>
<path d="M9910 5795 l0 -525 80 0 80 0 0 525 0 525 -80 0 -80 0 0 -525z"/>
<path d="M10872 5872 l3 -449 30 -49 c78 -125 263 -153 376 -56 80 69 79 59
79 560 l0 442 -75 0 -74 0 -3 -431 -3 -431 -28 -24 c-39 -33 -81 -31 -118 5
l-29 29 0 426 0 426 -80 0 -81 0 3 -448z"/>
<path d="M11530 5795 l0 -525 80 0 80 0 0 220 0 220 39 0 38 0 31 -117 c18
-65 44 -164 58 -220 l27 -103 85 0 c67 0 83 3 79 14 -3 7 -33 113 -68 235
l-62 222 33 32 c59 57 74 106 74 242 0 136 -15 185 -74 242 -53 51 -103 63
-272 63 l-148 0 0 -525z m290 362 c32 -16 49 -66 49 -142 0 -118 -30 -155
-126 -155 l-53 0 0 155 0 155 53 0 c28 0 63 -6 77 -13z"/>
<path d="M12180 5795 l0 -525 225 0 225 0 0 75 0 75 -145 0 -145 0 0 155 0
155 115 0 115 0 0 75 0 75 -115 0 -115 0 0 145 0 145 145 0 145 0 0 75 0 75
-225 0 -225 0 0 -525z"/>
<path d="M12730 6245 l0 -75 145 0 c88 0 145 -4 145 -10 0 -5 -65 -176 -145
-379 -138 -352 -145 -373 -145 -440 l0 -71 240 0 240 0 0 75 0 75 -150 0 c-82
0 -150 3 -150 6 0 3 68 178 150 388 136 347 150 387 150 444 l0 62 -240 0
-240 0 0 -75z"/>
<path d="M13300 6245 l0 -75 145 0 c88 0 145 -4 145 -10 0 -5 -65 -176 -145
-379 -138 -352 -145 -373 -145 -440 l0 -71 240 0 240 0 0 75 0 75 -150 0 c-82
0 -150 3 -150 6 0 3 68 178 150 388 136 347 150 387 150 444 l0 62 -240 0
-240 0 0 -75z"/>
<path d="M14026 6293 c-12 -58 -166 -993 -166 -1008 0 -12 15 -15 78 -15 l79
0 12 98 c20 155 10 142 106 142 96 0 86 13 106 -142 l12 -98 82 0 82 0 -14 88
c-7 48 -46 283 -86 522 l-73 435 -106 3 -106 3 -6 -28z m139 -403 c14 -96 28
-187 31 -202 l6 -28 -67 0 c-65 0 -67 1 -62 23 3 12 18 107 33 211 15 104 29
185 30 180 2 -5 15 -88 29 -184z"/>
<path d="M15866 6293 c-12 -58 -166 -993 -166 -1008 0 -12 15 -15 78 -15 l79
0 12 98 c20 155 10 142 106 142 96 0 86 13 106 -142 l12 -98 82 0 82 0 -14 88
c-7 48 -46 283 -86 522 l-73 435 -106 3 -106 3 -6 -28z m139 -403 c14 -96 28
-187 31 -202 l6 -28 -67 0 c-65 0 -67 1 -62 23 3 12 18 107 33 211 15 104 29
185 30 180 2 -5 15 -88 29 -184z"/>
<path d="M16372 5872 l3 -449 30 -49 c78 -125 263 -153 376 -56 80 69 79 59
79 560 l0 442 -75 0 -74 0 -3 -431 -3 -431 -28 -24 c-39 -33 -81 -31 -118 5
l-29 29 0 426 0 426 -80 0 -81 0 3 -448z"/>
<path d="M16980 6245 l0 -75 85 0 85 0 0 -450 0 -450 80 0 80 0 0 450 0 450
85 0 85 0 0 75 0 75 -250 0 -250 0 0 -75z"/>
<path d="M18270 5795 l0 -525 75 0 75 0 1 348 c0 191 2 343 5 337 4 -10 144
-673 144 -682 0 -2 26 -3 57 -1 l57 3 71 339 70 339 3 -341 2 -342 80 0 80 0
0 525 0 525 -114 0 c-110 0 -114 -1 -119 -22 -3 -13 -31 -159 -63 -325 -33
-167 -61 -303 -64 -303 -3 0 -35 145 -71 323 l-65 322 -112 3 -112 3 0 -526z"/>
<path d="M19286 6293 c-12 -58 -166 -993 -166 -1008 0 -12 15 -15 78 -15 l79
0 12 98 c20 155 10 142 106 142 96 0 86 13 106 -142 l12 -98 82 0 82 0 -14 88
c-7 48 -46 283 -86 522 l-73 435 -106 3 -106 3 -6 -28z m139 -403 c14 -96 28
-187 31 -202 l6 -28 -67 0 c-65 0 -67 1 -62 23 3 12 18 107 33 211 15 104 29
185 30 180 2 -5 15 -88 29 -184z"/>
<path d="M19760 6245 l0 -75 145 0 c88 0 145 -4 145 -10 0 -5 -65 -176 -145
-379 -138 -352 -145 -373 -145 -440 l0 -71 240 0 240 0 0 75 0 75 -150 0 c-82
0 -150 3 -150 6 0 3 68 178 150 388 136 347 150 387 150 444 l0 62 -240 0
-240 0 0 -75z"/>
<path d="M20370 5795 l0 -525 80 0 80 0 0 525 0 525 -80 0 -80 0 0 -525z"/>
<path d="M21360 5795 l0 -525 75 0 75 0 0 327 c0 179 2 324 5 322 4 -4 205
-635 205 -645 0 -2 38 -4 85 -4 l85 0 0 525 0 525 -80 0 -80 0 -2 -337 -3
-336 -95 334 -96 334 -87 3 -87 3 0 -526z"/>
<path d="M22070 5795 l0 -525 225 0 225 0 0 75 0 75 -145 0 -145 0 0 155 0
155 115 0 115 0 0 75 0 75 -115 0 -115 0 0 145 0 145 145 0 145 0 0 75 0 75
-225 0 -225 0 0 -525z"/>
</g>
</svg>
